<svg width="408" height="404" viewBox="0 0 408 404" fill="none" xmlns="http://www.w3.org/2000/svg">
<rect width="408" height="404" fill="#072AC8"/>
<path fill-rule="evenodd" clip-rule="evenodd" d="M174.885 285.632C177.475 285.632 179.657 285.928 181.395 286.557C183.134 287.187 184.539 288.002 185.575 289.075C186.611 290.149 187.351 291.371 187.794 292.741C188.238 294.111 188.46 295.592 188.46 297.11C188.46 298.629 188.201 300.11 187.72 301.517C187.24 302.924 186.463 304.183 185.39 305.257C184.318 306.33 182.949 307.219 181.21 307.849C179.472 308.478 177.364 308.811 174.885 308.811H161.644V285.669H174.885V285.632ZM166.415 304.701H174.775C176.476 304.701 177.919 304.479 179.065 304.072C180.212 303.664 181.1 303.072 181.765 302.368C182.431 301.665 182.912 300.85 183.208 299.925C183.504 299.036 183.652 298.073 183.652 297.11C183.652 296.148 183.504 295.185 183.208 294.333C182.912 293.445 182.431 292.667 181.765 291.964C181.1 291.26 180.212 290.705 179.065 290.334C177.919 289.927 176.513 289.742 174.775 289.742H166.415V304.701ZM128.714 308.774L139.589 285.632H144.73L155.716 308.774H150.538L148.245 303.739H136.167L133.893 308.774H128.714ZM142.183 290.419L146.442 299.777H137.957L142.183 290.419ZM202.435 285.632L191.56 308.774H196.702L198.985 303.738H211.091L213.384 308.774H218.562L207.576 285.632H202.435ZM209.288 299.776L205.026 290.414L200.782 299.776H209.288ZM229.597 308.774V301.332H239.177C240.472 301.332 241.656 301.184 242.802 300.924C243.912 300.628 244.911 300.184 245.761 299.591C246.612 298.999 247.278 298.184 247.759 297.222C248.24 296.222 248.461 295.037 248.461 293.667C248.461 292.26 248.24 291.038 247.759 290.038C247.278 289.038 246.612 288.187 245.761 287.557C244.911 286.891 243.949 286.409 242.802 286.113C241.693 285.78 240.472 285.632 239.177 285.632H224.826V308.774H229.597ZM239.621 297.481H229.597V289.705H239.621C240.879 289.705 241.878 290.038 242.617 290.705C243.357 291.371 243.727 292.334 243.727 293.593C243.727 294.815 243.357 295.777 242.617 296.444C241.878 297.147 240.879 297.481 239.621 297.481ZM277.495 285.632H253.119V289.594H262.958V308.774H267.73V289.594H277.495V285.632Z" fill="white"/>
<path d="M144.917 326.45C144.842 327.095 144.615 327.644 144.235 328.099C143.854 328.554 143.338 328.901 142.685 329.14C142.032 329.38 141.255 329.5 140.354 329.5C139.602 329.5 138.912 329.413 138.283 329.24C137.664 329.066 137.126 328.806 136.672 328.458C136.225 328.111 135.878 327.682 135.63 327.169C135.382 326.648 135.258 326.041 135.258 325.347C135.258 324.652 135.382 324.045 135.63 323.524C135.878 323.003 136.225 322.569 136.672 322.222C137.126 321.867 137.664 321.602 138.283 321.429C138.912 321.247 139.602 321.156 140.354 321.156C141.255 321.156 142.032 321.28 142.685 321.528C143.346 321.776 143.867 322.131 144.247 322.594C144.627 323.049 144.85 323.602 144.917 324.255H143.28C143.173 323.908 142.991 323.611 142.734 323.363C142.487 323.107 142.164 322.912 141.767 322.78C141.371 322.648 140.9 322.582 140.354 322.582C139.676 322.582 139.081 322.689 138.569 322.904C138.056 323.111 137.659 323.421 137.378 323.834C137.097 324.239 136.957 324.743 136.957 325.347C136.957 325.942 137.097 326.442 137.378 326.847C137.659 327.252 138.056 327.562 138.569 327.777C139.081 327.983 139.676 328.087 140.354 328.087C140.9 328.087 141.367 328.02 141.755 327.888C142.152 327.756 142.474 327.566 142.722 327.318C142.978 327.07 143.164 326.781 143.28 326.45H144.917Z" fill="#072AC8"/>
<path d="M154.77 329.5C153.704 329.5 152.791 329.335 152.03 329.004C151.278 328.665 150.7 328.186 150.295 327.566C149.898 326.946 149.699 326.202 149.699 325.334C149.699 324.458 149.898 323.71 150.295 323.09C150.7 322.47 151.278 321.995 152.03 321.664C152.791 321.325 153.704 321.156 154.77 321.156C155.845 321.156 156.758 321.325 157.51 321.664C158.263 321.995 158.837 322.47 159.234 323.09C159.639 323.71 159.841 324.458 159.841 325.334C159.841 326.202 159.639 326.946 159.234 327.566C158.837 328.186 158.263 328.665 157.51 329.004C156.758 329.335 155.845 329.5 154.77 329.5ZM154.77 328.074C155.432 328.074 156.01 327.975 156.506 327.777C157.01 327.578 157.403 327.277 157.684 326.872C157.973 326.466 158.118 325.954 158.118 325.334C158.118 324.714 157.973 324.202 157.684 323.797C157.403 323.392 157.01 323.09 156.506 322.892C156.01 322.685 155.432 322.582 154.77 322.582C154.117 322.582 153.535 322.685 153.022 322.892C152.51 323.09 152.109 323.392 151.82 323.797C151.53 324.202 151.386 324.714 151.386 325.334C151.386 325.954 151.53 326.466 151.82 326.872C152.109 327.277 152.51 327.578 153.022 327.777C153.535 327.975 154.117 328.074 154.77 328.074Z" fill="#072AC8"/>
<path d="M166.348 326.735V325.421H170.018C170.456 325.421 170.803 325.305 171.06 325.074C171.316 324.834 171.444 324.503 171.444 324.082C171.444 323.644 171.316 323.309 171.06 323.078C170.803 322.846 170.456 322.73 170.018 322.73H166.547V329.339H164.898V321.317H169.869C170.316 321.317 170.733 321.371 171.122 321.478C171.518 321.586 171.861 321.751 172.151 321.974C172.448 322.197 172.68 322.483 172.845 322.83C173.01 323.177 173.093 323.594 173.093 324.082C173.093 324.561 173.01 324.97 172.845 325.309C172.68 325.648 172.448 325.925 172.151 326.14C171.861 326.347 171.518 326.5 171.122 326.599C170.733 326.69 170.316 326.735 169.869 326.735H166.348Z" fill="#072AC8"/>
<path d="M179.765 325.991V327.963H185.952V329.339H178.117V321.317H185.94V322.693H179.765V324.689H184.824V325.991H179.765Z" fill="#072AC8"/>
<path d="M199.25 327.702L198.729 327.913V321.317H200.378V329.339H198.729L192.245 323.003L192.766 322.792V329.339H191.117V321.317H192.766L199.25 327.702Z" fill="#072AC8"/>
<path d="M207.214 324.627H213.575V326.004H207.214V324.627ZM213.302 321.317H214.951V329.339H213.302V321.317ZM205.764 321.317H207.413V329.339H205.764V321.317Z" fill="#072AC8"/>
<path d="M221.578 327.591V326.214H226.885V327.591H221.578ZM219.582 329.339L223.351 321.317H225.137L228.943 329.339H227.145L223.847 322.111H224.641L221.367 329.339H219.582Z" fill="#072AC8"/>
<path d="M237.781 329.5C237.037 329.5 236.364 329.413 235.76 329.24C235.165 329.066 234.648 328.806 234.21 328.458C233.781 328.111 233.45 327.682 233.219 327.169C232.987 326.657 232.871 326.066 232.871 325.396C232.871 324.718 232.991 324.119 233.231 323.598C233.479 323.069 233.826 322.623 234.272 322.259C234.727 321.896 235.264 321.623 235.884 321.441C236.512 321.251 237.207 321.156 237.967 321.156C238.868 321.156 239.645 321.284 240.298 321.54C240.951 321.788 241.463 322.139 241.835 322.594C242.216 323.049 242.43 323.59 242.48 324.218H240.893C240.786 323.888 240.608 323.602 240.36 323.363C240.12 323.115 239.802 322.925 239.405 322.792C239.009 322.652 238.529 322.582 237.967 322.582C237.248 322.582 236.632 322.697 236.12 322.929C235.616 323.16 235.231 323.487 234.967 323.908C234.702 324.33 234.57 324.826 234.57 325.396C234.57 325.95 234.686 326.429 234.917 326.834C235.149 327.231 235.504 327.537 235.983 327.752C236.471 327.967 237.091 328.074 237.843 328.074C238.422 328.074 238.93 328 239.368 327.851C239.814 327.694 240.186 327.487 240.484 327.231C240.782 326.967 240.992 326.673 241.116 326.351L241.761 326.115C241.654 327.181 241.249 328.012 240.546 328.607C239.852 329.202 238.93 329.5 237.781 329.5ZM241.339 329.339C241.339 329.083 241.356 328.789 241.389 328.458C241.422 328.12 241.463 327.781 241.513 327.442C241.563 327.095 241.608 326.776 241.649 326.487H237.979V325.433H242.765V329.339H241.339Z" fill="#072AC8"/>
<path d="M249.622 325.991V327.963H255.809V329.339H247.973V321.317H255.797V322.693H249.622V324.689H254.681V325.991H249.622Z" fill="#072AC8"/>
<path d="M269.107 327.702L268.586 327.913V321.317H270.235V329.339H268.586L262.102 323.003L262.623 322.792V329.339H260.974V321.317H262.623L269.107 327.702Z" fill="#072AC8"/>
<path d="M285.159 246.907L209.086 94.6975H189.444L188.499 96.8107L120.862 249.073L129.315 266.015L130.297 267.975H149.976L166.918 229.939H238.142L256.103 265.825L257.213 268.038H276.632L285.117 251.07L286.173 248.925L285.159 246.907ZM206.445 98.9238L280.404 246.844H268.254L250.292 210.92L249.236 208.807H176.332L181.98 196.128H242.896L194.294 98.9238H206.445ZM183.807 191.902L200.448 154.547L219.123 191.902H183.807ZM125.501 248.957L190.95 101.724L236.028 191.902H223.878L202.704 149.549L201.996 148.139L191.837 127.821L131.55 261.049L125.501 248.957ZM164.155 225.712L147.213 263.749H134.968L192.022 137.647L197.992 149.65L179.169 191.913L178.461 193.497L171.641 208.818L170.938 210.403L170.194 212.077H170.225L169.797 213.039H244.481L238.142 225.718L164.155 225.712ZM241.813 227.825L247.904 215.675L264.54 248.957L258.449 261.134L241.813 227.825ZM274.002 263.812H261.851L268.19 251.133H280.341L274.002 263.812Z" fill="white"/>
</svg>
